<?xml version="1.0" encoding="UTF-8"?><svg id="ICONS" xmlns="http://www.w3.org/2000/svg" viewBox="0 0 12.8 17.62"><defs><style>.cls-1{fill:#22b573;}</style></defs><circle class="cls-1" cx="6.4" cy="6.76" r="2.48"/><path class="cls-1" d="M6.4,17.62l-1.18-1.54c-1.12-1.46-2-2.59-2.57-3.32l-.14-.17c-1.09-1.39-1.64-2.09-2.05-3.29-.18-.54-.66-1.95-.38-3.61C.52,3.09,2.65.31,5.88.02c.08,0,.73-.02.79-.02,3.33.15,5.6,3.05,6.05,5.7.28,1.66-.2,3.08-.38,3.61-.41,1.2-.95,1.9-2.04,3.28l-.15.18c-.57.72-1.45,1.86-2.57,3.31l-1.18,1.54ZM6.58,1.87c-.06,0-.47.01-.55.02-2.24.2-3.79,2.27-4.1,4.12-.2,1.2.17,2.29.31,2.7.31.9.73,1.44,1.75,2.73l.14.17c.52.66,1.3,1.66,2.28,2.93.98-1.27,1.76-2.27,2.28-2.93l.14-.18c1.02-1.3,1.44-1.83,1.74-2.73.14-.41.51-1.5.31-2.7h0c-.32-1.93-1.94-4.03-4.29-4.14Z"/></svg>