<?xml version="1.0" encoding="UTF-8"?><svg id="ICONS" xmlns="http://www.w3.org/2000/svg" viewBox="0 0 15.45 16.2"><defs><style>.cls-1{fill:#22b573;}</style></defs><path class="cls-1" d="M6.74,10.38c-.24,0-.48-.09-.66-.27l-.92-.92c-1.18-1.18-1.18-3.09,0-4.27L9.2.88c1.14-1.14,3.13-1.14,4.27,0l1.1,1.1c.57.57.88,1.33.88,2.13s-.31,1.57-.88,2.13l-1.48,1.48c-.37.37-.96.37-1.32,0-.37-.37-.37-.96,0-1.32l1.48-1.48c.22-.22.33-.5.33-.81s-.12-.6-.33-.81l-1.1-1.1c-.45-.45-1.17-.45-1.62,0l-4.04,4.04c-.45.45-.45,1.17,0,1.62l.92.92c.37.37.37.96,0,1.32-.18.18-.42.27-.66.27Z"/><path class="cls-1" d="M4.12,16.2c-.81,0-1.57-.31-2.13-.88l-1.1-1.1C.31,13.65,0,12.89,0,12.08s.31-1.57.88-2.13l1.48-1.48c.37-.37.96-.37,1.32,0s.37.96,0,1.32l-1.48,1.48c-.45.45-.45,1.17,0,1.62l1.1,1.1c.45.45,1.17.45,1.62,0l4.04-4.04c.22-.21.33-.5.33-.81s-.12-.6-.33-.81l-.92-.92c-.37-.37-.37-.96,0-1.32.37-.37.96-.37,1.32,0l.92.92c.57.57.88,1.33.88,2.13s-.31,1.57-.88,2.13l-4.04,4.04c-.57.57-1.33.88-2.13.88Z"/></svg>